<svg xmlns="http://www.w3.org/2000/svg"  viewBox="0 0 64 64" width="512px" height="512px" baseProfile="basic"><linearGradient id="gz3va-hh3WQ5D6BJQywFUa" x1="32" x2="32" y1="735.083" y2="780.676" gradientTransform="translate(0 -726)" gradientUnits="userSpaceOnUse"><stop offset="0" stop-color="#1a6dff"/><stop offset="1" stop-color="#c822ff"/></linearGradient><path fill="url(#gz3va-hh3WQ5D6BJQywFUa)" d="M50,55H14c-2.757,0-5-2.243-5-5V14c0-2.757,2.243-5,5-5h36c2.757,0,5,2.243,5,5v36	C55,52.757,52.757,55,50,55z M14,11c-1.654,0-3,1.346-3,3v36c0,1.654,1.346,3,3,3h36c1.654,0,3-1.346,3-3V14c0-1.654-1.346-3-3-3H14	z"/><linearGradient id="gz3va-hh3WQ5D6BJQywFUb" x1="30.5" x2="30.5" y1="18.001" y2="46" gradientUnits="userSpaceOnUse"><stop offset="0" stop-color="#6dc7ff"/><stop offset="1" stop-color="#e6abff"/></linearGradient><path fill="url(#gz3va-hh3WQ5D6BJQywFUb)" d="M42,34v4v0.021h-0.002C41.986,40.768,39.749,43,37,43h-0.5c-0.987,0-1.933-0.42-2.596-1.152	c-0.662-0.731-0.985-1.718-0.887-2.705C33.195,37.38,34.787,36,36.643,36H38c1.103,0,2-0.897,2-2v-9.795l-12,2.25V37v4	c0,2.757-2.243,5-5,5h-0.5c-0.987,0-1.933-0.42-2.596-1.152c-0.662-0.731-0.985-1.718-0.887-2.705C19.195,40.38,20.787,39,22.643,39	H24c1.103,0,2-0.897,2-2V22.353c0-0.963,0.687-1.79,1.633-1.966l12.591-2.36c0.439-0.083,0.891,0.033,1.234,0.319	C41.803,18.632,42,19.053,42,19.5V34z"/></svg>